<?xml version="1.0" encoding="UTF-8" standalone="no"?><!DOCTYPE svg PUBLIC "-//W3C//DTD SVG 1.1//EN" "http://www.w3.org/Graphics/SVG/1.1/DTD/svg11.dtd"><svg width="100%" height="100%" viewBox="0 0 532 128" version="1.1" xmlns="http://www.w3.org/2000/svg" xmlns:xlink="http://www.w3.org/1999/xlink" xml:space="preserve" xmlns:serif="http://www.serif.com/" style="fill-rule:evenodd;clip-rule:evenodd;stroke-miterlimit:10;"><path d="M320.337,0.014c0,0 -38.978,-1.602 -43.783,33.638c0,0 0,4.806 -3.204,4.806c-2.136,0 -2.669,-1.602 -2.669,-4.806c0,-0.163 0,-22.959 19.756,-32.036c1.013,-0.466 2.752,-1.614 -2.054,-1.614l-33.975,-0.001c0,0 -12.937,-0.239 -5.619,9.09c9.611,11.747 9.077,24.499 9.077,24.561c0,3.204 0,4.806 -2.67,4.806c-3.204,0 -3.204,-4.806 -3.204,-4.806c-4.271,-35.24 -45.918,-33.638 -45.918,-33.638l-194.355,0l227.542,44.164l25.287,83.044l24.659,-83.054l228.153,-44.154l-197.023,0Z" style="fill:#f15a29;fill-rule:nonzero;"/><path d="M15.431,5.912l91.897,18.276l0.716,21.238l-42.373,-7.11l-1.365,34.488l44.747,2.537l0.84,24.954l-89.75,0.048l-17.631,-19.003l12.919,-75.428Z" style="fill:#fff;fill-rule:nonzero;stroke:#fff;stroke-width:0.5px;"/><path d="M142.335,50.258l11.905,1.396l3.381,25.882l-12.166,-0.842l-3.12,-26.436Zm-28.714,-24.813l2.5,74.849l70.834,0l-12.233,-63.096l-61.101,-11.753Z" style="fill:#fff;fill-rule:nonzero;stroke:#fff;stroke-width:0.5px;"/><path d="M192.97,100.294l-12.805,-62.091l23.271,4.25l1.062,2.992l15,12.675l-3.5,-13.168l18,3.292l19.044,62.55l-23.044,-14.979l-2.166,-8.559l-15.5,-13.663l6.301,26.701l-25.663,0Z" style="fill:#fff;fill-rule:nonzero;stroke:#fff;stroke-width:0.5px;"/><path d="M278.666,100.182l5.361,-17.608l30.431,-1.694l1.851,-6.754l-4.46,-13.299l-4.25,15.465l-22.05,1.263l8.824,-29.476l38.063,-7.106l9.21,28.969l-6.235,30.24l-56.745,0Z" style="fill:#fff;fill-rule:nonzero;stroke:#fff;stroke-width:0.5px;"/><path d="M382.955,76.712l-12.167,0.843l3.381,-25.877l11.905,-1.396l-3.119,26.43Zm-29.268,-39.495l-12.232,63.097l70.833,0l2.5,-74.851l-61.101,11.754Z" style="fill:#fff;fill-rule:nonzero;stroke:#fff;stroke-width:0.5px;"/><path d="M453.563,45.864l0,-5.996l15.482,-2.665l0.908,6.291l-16.39,2.37Zm68.424,12.669l-12.946,-5.424l10.413,-9.37l-6.475,-37.803l-91.897,18.277l-2.566,76.106l35.046,0l0.001,-32.173l16.128,-2.193l3.895,34.366l55.536,0l-7.135,-41.786Z" style="fill:#fff;fill-rule:nonzero;stroke:#fff;stroke-width:0.5px;"/></svg>